<svg id="Layer_1" data-name="Layer 1" xmlns="http://www.w3.org/2000/svg" viewBox="0 0 110 110"><path d="M61.11,57.7A6.11,6.11,0,1,1,55,51.6,6.11,6.11,0,0,1,61.11,57.7ZM53,10.38a47.35,47.35,0,0,0-20.54,89,2.49,2.49,0,0,0,3.45-1.14h0A2.48,2.48,0,0,0,34.87,95a42.37,42.37,0,1,1,40.25,0,2.49,2.49,0,0,0-1.06,3.25h0a2.51,2.51,0,0,0,3.45,1.14A47.36,47.36,0,0,0,53,10.38Zm35,45a33.06,33.06,0,1,0-49.42,31A2.49,2.49,0,0,0,42,85.25h0A2.48,2.48,0,0,0,41,82a28.06,28.06,0,1,1,28,0,2.5,2.5,0,0,0-1,3.24h0a2.48,2.48,0,0,0,3.48,1.12A33.07,33.07,0,0,0,88,55.42Zm-13,2A20,20,0,1,0,44,74.34a2.51,2.51,0,0,0,3.63-1,2.48,2.48,0,0,0-.85-3.12,15,15,0,1,1,16.39,0A2.5,2.5,0,0,0,66,74.34,19.92,19.92,0,0,0,75,57.41Z" fill="#ff003d"/></svg>