<svg id="Layer_1" data-name="Layer 1" xmlns="http://www.w3.org/2000/svg" viewBox="0 0 110 110"><path d="M32.21,71.28a6,6,0,0,1,.44-2L43.52,39.68c.91-2.49,2.41-3.63,4.85-3.63s4,1.09,4.9,3.6l10.9,29.58a5.87,5.87,0,0,1,.44,2,3.1,3.1,0,0,1-3.35,3.09c-1.81,0-2.82-.83-3.42-2.83l-2.46-7.16h-14l-2.46,7.11c-.63,2-1.61,2.88-3.35,2.88C33.53,74.37,32.21,73.18,32.21,71.28ZM53.74,59.09l-5.32-16h-.18L43,59.09Zm14.87-20a3.59,3.59,0,1,1,3.58,3.5A3.51,3.51,0,0,1,68.61,39.06Zm.36,32V49.28a3.23,3.23,0,1,1,6.46,0V71.05a3.23,3.23,0,1,1-6.46,0ZM97.26,27.33A24.48,24.48,0,0,0,82.67,12.74C78,10.81,71.6,10.81,61.09,10.81H48.91c-10.51,0-16.88,0-21.58,1.93A24.48,24.48,0,0,0,12.74,27.33C10.81,32,10.81,38.4,10.81,48.91V61.09c0,10.51,0,16.88,1.93,21.58A24.48,24.48,0,0,0,27.33,97.26c4.7,1.93,11.07,1.93,21.58,1.93H61.09c10.51,0,16.88,0,21.58-1.93A24.48,24.48,0,0,0,97.26,82.67c1.93-4.7,1.93-11.07,1.93-21.58V48.91C99.19,38.4,99.19,32,97.26,27.33ZM92.19,61.09c0,9.7,0,15.55-1.42,19l-.06.15A17.52,17.52,0,0,1,80.2,90.71l-.15.06c-3.41,1.42-9.26,1.42-19,1.42H48.91c-9.69,0-15.55,0-19-1.42l-.15-.06A17.52,17.52,0,0,1,19.29,80.2l-.06-.15c-1.42-3.41-1.42-9.27-1.42-19V48.91c0-9.7,0-15.55,1.42-19l.06-.15A17.52,17.52,0,0,1,29.8,19.29l.15-.06c3.41-1.42,9.27-1.42,19-1.42H61.09c9.7,0,15.55,0,19,1.42l.15.06A17.52,17.52,0,0,1,90.71,29.8l.06.15c1.42,3.41,1.42,9.26,1.42,19Z" fill="#ff003d"/></svg>