<svg id="Layer_1" data-name="Layer 1" xmlns="http://www.w3.org/2000/svg" viewBox="0 0 110 110"><path d="M97.22,43.74a9.94,9.94,0,0,0-3.35-5.26,8.87,8.87,0,0,0-1.28-.85,32.21,32.21,0,0,0-18-18.91,8.2,8.2,0,0,0-4.94-4.9l-.12-.05a43.7,43.7,0,0,0-45.4,72.1A43.37,43.37,0,0,0,55,98.69h.32A43.81,43.81,0,0,0,98.69,55h0A43.69,43.69,0,0,0,97.22,43.74ZM87.07,37.27c-3.59,1.6-5.86,6.64-7.14,15.83a65.87,65.87,0,0,1-5.72,19.53,26.65,26.65,0,0,1-11.76,2.71,27,27,0,0,1-25-37.22c6.82-3.93,17.35-6.76,25.15-8.13,5.92-1,9.35-2.91,11.18-6.14A27.22,27.22,0,0,1,87.07,37.27ZM16.31,54.65A38.67,38.67,0,0,1,53.2,16.35c.61,0,1.21,0,1.81,0a38.24,38.24,0,0,1,12.75,2.16c1.21.51,2.3,1.52,2,2.3-.45,1.09-1.28,3.11-8,4.29-4.16.73-18.45,3.56-27.74,9.29A33.46,33.46,0,0,0,18.42,60.41,30.24,30.24,0,0,0,19.76,71,38.59,38.59,0,0,1,16.31,54.65ZM37.48,85.27c-12.23-7.74-14.4-17.66-14.07-24.62a28.36,28.36,0,0,1,7.4-17.13A32,32,0,0,0,69.93,79.44a19.1,19.1,0,0,1-3.61,3.46C62.7,85.45,50,93.15,37.48,85.27Zm17.81,8.42c-1,0-2,0-3-.1A37.66,37.66,0,0,0,69.2,87c9-6.37,14-21.33,15.68-33.19,1.47-10.58,4-11.87,4.27-12,.51-.2,1.21.27,1.59.57A5.07,5.07,0,0,1,92.39,45a38.71,38.71,0,0,1-37.1,48.66Z" fill="#ff003d"/></svg>