<svg id="Layer_1" data-name="Layer 1" xmlns="http://www.w3.org/2000/svg" viewBox="0 0 110 110"><path d="M30.87,91.38A29.12,29.12,0,0,1,9.73,82.24,29,29,0,0,1,29.15,33.41c.49,0,1,0,1.46,0a29.1,29.1,0,0,1,20.67,8.71L66.18,57a3.5,3.5,0,0,1-5,5L46.33,47a22.07,22.07,0,0,0-15.66-6.66q-.55,0-1.11,0A22.27,22.27,0,0,0,8.9,61a22,22,0,0,0,22,23.42,22.2,22.2,0,0,0,3.56-.28A3.5,3.5,0,0,1,35.55,91,29.25,29.25,0,0,1,30.87,91.38ZM108.14,55a36.39,36.39,0,0,0-55-31.28,3.5,3.5,0,1,0,3.58,6,29.39,29.39,0,1,1-7.24,44.46L49.33,74,32,56.64A3.5,3.5,0,0,0,27,61.58L44.29,78.87A36.39,36.39,0,0,0,108.14,55Z" fill="#ff003d"/></svg>