<svg id="Layer_1" data-name="Layer 1" xmlns="http://www.w3.org/2000/svg" viewBox="0 0 110 110"><path d="M58.89,101.06A16.4,16.4,0,0,1,43.52,90.35l0-.08c-2.91.25-6.85.14-10.08-1.55-4.83-2.53-8-6.1-11.09-12.33-2.1-4.29-2.78-4.42-5.07-4.86a3.78,3.78,0,0,1-.71-7.21c2.29-.93,8.16-2.73,13.22.5a16.54,16.54,0,0,1,5.15,5.83c1.52,2.49,2,3,3.43,3a6.06,6.06,0,0,0,4.89-2.32C30.4,66.51,22,56.06,22,44.61a25,25,0,0,1,5.18-15.08c-3.25-6.75-2.45-14.41,2.12-19.09l.62-.63.84-.26C35.68,8,42.61,9.12,48,16.46a46.31,46.31,0,0,1,21.77,0,17.36,17.36,0,0,1,16.65-7l1.2.16.84.86c4.56,4.66,5.37,12.28,2.17,19a25,25,0,0,1,5.24,15.16c0,11.49-8.51,22-21.42,26.75.62,1.79.87,4.57.87,9.3,0,5.1-.29,7.92-1,9.7a16.41,16.41,0,0,1-15.37,10.7ZM50,87.8l0,.08a9.39,9.39,0,0,0,17.64,0l.07-.17c.11-.29.49-1.65.49-7s-.38-6.75-.49-7l-.07-.17a8.69,8.69,0,0,0-.55-1.21,4.69,4.69,0,0,1-.23-4.07,4.59,4.59,0,0,1,3-2.68c11.32-3.38,18.93-11.78,18.93-20.88a18.62,18.62,0,0,0-5.07-12.45l-1.76-2,1.53-2.4c.07-.12.15-.23.22-.36,2.21-3.83,2.33-8.32.41-11.17a10.7,10.7,0,0,0-9.68,5.66A3.88,3.88,0,0,1,70,23.75a39.11,39.11,0,0,0-22.23,0,3.88,3.88,0,0,1-4.46-1.72c-.72-1.21-4.45-6.92-9.58-6-2.09,2.83-2,7.46.25,11.41.09.16.18.3.28.45l1.51,2.35-1.76,2a18.62,18.62,0,0,0-5,12.39c0,9.1,7.61,17.5,18.93,20.88a4.58,4.58,0,0,1,3,2.69,4.67,4.67,0,0,1-.23,4.06,10.17,10.17,0,0,0-.54,1.17,4.23,4.23,0,0,1-.23.53,13.09,13.09,0,0,1-11.51,6.69,9.38,9.38,0,0,1-8.17-4.42,15.58,15.58,0,0,0,6.48,6.3c1.7.89,4.66,1.11,7.92.58a4.62,4.62,0,0,1,5.27,3.75C50,87.44,50,87.71,50,87.8ZM72,17.05h0Z" fill="#ff003d"/></svg>