<svg id="Layer_1" data-name="Layer 1" xmlns="http://www.w3.org/2000/svg" viewBox="0 0 110 110"><path d="M99.87,45.64C98.1,41.38,94,37.3,87.26,30.55l-7.81-7.81C72.7,16,68.62,11.91,64.36,10.13a22.27,22.27,0,0,0-18.72,0c-3.69,1.54-7.25,4.81-12.52,10h0L28,25.3h0l-5.26,5.25C16,37.3,11.91,41.38,10.13,45.64a22.27,22.27,0,0,0,0,18.72C11.91,68.62,16,72.7,22.74,79.45l7.81,7.81C37.3,94,41.38,98.09,45.64,99.87a22.27,22.27,0,0,0,18.72,0C68.62,98.09,72.7,94,79.45,87.26l7.82-7.81C94,72.7,98.1,68.62,99.87,64.36A22.27,22.27,0,0,0,99.87,45.64Zm-5.79,16.1,0,.14C92.75,65,89,68.74,82.77,75L75,82.77C68.74,89,65,92.75,61.88,94l-.14.06a15.89,15.89,0,0,1-13.48,0L48.12,94C45,92.75,41.26,89,35,82.77L27.23,75C21,68.74,17.25,65,16,61.88l-.06-.14a15.89,15.89,0,0,1,0-13.48l.06-.14C17.25,45,21,41.26,27.23,35l5.25-5.25L48.65,46a7,7,0,0,0,2.72,8.85V71.75a7,7,0,1,0,7.26,0V56l5,5a7,7,0,1,0,6.43-4.24l-.38,0L62,49v-.16a7,7,0,0,0-7-7h-.16L37.61,24.66C42.34,20,45.47,17.07,48.12,16l.14-.06a15.89,15.89,0,0,1,13.48,0l.14.06C65,17.25,68.74,21,75,27.23L82.77,35C89,41.26,92.75,45,94,48.12l.06.14A15.89,15.89,0,0,1,94.08,61.74Z" fill="#ff003d"/></svg>