<svg id="Layer_1" data-name="Layer 1" xmlns="http://www.w3.org/2000/svg" viewBox="0 0 170 110"><path d="M4.29,20.19a5,5,0,1,1,5,5A5,5,0,0,1,4.29,20.19Zm1.25,72.5V40.07a3.74,3.74,0,1,1,7.45,0V92.69a3.69,3.69,0,0,1-3.73,4A3.69,3.69,0,0,1,5.54,92.69ZM24.28,55c0-25.8,14.28-42.06,37-42.06s37,16.26,37,42.06S84,97,61.26,97,24.28,80.83,24.28,55Zm66.11,0c0-21.4-11.29-34.89-29.13-34.89S32.18,33.63,32.18,55,43.42,89.86,61.26,89.86,90.39,76.37,90.39,55Zm17,24.44a10.39,10.39,0,0,1-.5-3.1c0-2.48,1.35-4.07,3.55-4.07,2,0,3.22,1,3.73,3.17,2.09,9.37,11,14.56,22.7,14.56,12.25,0,20.94-6.49,20.94-15.75,0-7.68-5.08-12.31-17.61-15.19l-8.87-2c-16.14-3.62-22.92-10.56-22.92-21.8C108.4,22.17,120.26,13,136.23,13c13.5,0,24.45,6.88,27.22,17.61a10.17,10.17,0,0,1,.22,2.43,3.34,3.34,0,0,1-3.5,3.56c-2,0-3.21-1.08-3.84-3.11C154,24.77,146.23,20,136,20c-11,0-19.7,5.76-19.7,15,0,7.39,5,12.08,17.1,14.79l8.87,2c16.71,3.78,23.43,10.11,23.43,21.45,0,14.46-11.63,23.77-29.25,23.77C121.1,97,110.15,89.75,107.38,79.47Z" fill="#ff003d"/></svg>