<svg id="Layer_1" data-name="Layer 1" xmlns="http://www.w3.org/2000/svg" viewBox="0 0 110 110"><path d="M97.26,27.33A24.48,24.48,0,0,0,82.67,12.74C78,10.81,71.6,10.81,61.09,10.81H48.91c-10.51,0-16.88,0-21.58,1.93A24.48,24.48,0,0,0,12.74,27.33C10.81,32,10.81,38.4,10.81,48.91V61.09c0,10.51,0,16.88,1.93,21.58A24.48,24.48,0,0,0,27.33,97.26c4.7,1.93,11.07,1.93,21.58,1.93H61.09c10.51,0,16.88,0,21.58-1.93A24.48,24.48,0,0,0,97.26,82.67c1.93-4.7,1.93-11.07,1.93-21.58V48.91C99.19,38.4,99.19,32,97.26,27.33ZM30,90.77l-.15-.06A17.52,17.52,0,0,1,19.29,80.2l-.06-.15c-1.42-3.41-1.42-9.27-1.42-19V48.91c0-9.7,0-15.55,1.42-19l.06-.15A17.52,17.52,0,0,1,29.8,19.29l.15-.06c3.41-1.42,9.27-1.42,19-1.42h5c-3.38,6.86-8.27,20.47-8.63,42.13A5.89,5.89,0,0,0,47,64.18a5.82,5.82,0,0,0,4.18,1.75h6.56v8.61c-1.26.13-2.51.23-3.77.24a41.41,41.41,0,0,1-20.19-5.53,3,3,0,0,0-3,5.17A47.44,47.44,0,0,0,54,80.79c1.26,0,2.51-.09,3.77-.21V92.19H48.91C39.22,92.19,33.36,92.19,30,90.77ZM92.19,61.09c0,9.7,0,15.55-1.42,19l-.06.15A17.52,17.52,0,0,1,80.2,90.71l-.15.06c-3,1.24-7.77,1.4-15.33,1.42V79.41a47.38,47.38,0,0,0,12.45-5,3,3,0,0,0-3-5.17,41.61,41.61,0,0,1-9.42,4v-8.4a5.89,5.89,0,0,0-5.88-5.88H52.31c.59-24.35,7.31-37.4,9.57-41.12,9.22,0,14.85,0,18.17,1.42l.15.06A17.52,17.52,0,0,1,90.71,29.8l.06.15c1.42,3.41,1.42,9.26,1.42,19Zm-17-20.78v2.56a3.33,3.33,0,1,1-6.65,0V40.31a3.33,3.33,0,1,1,6.65,0Zm-45,2.56V40.31a3.33,3.33,0,1,1,6.65,0v2.56a3.33,3.33,0,1,1-6.65,0Z" fill="#ff003d"/></svg>