<svg id="Layer_1" data-name="Layer 1" xmlns="http://www.w3.org/2000/svg" viewBox="0 0 110 110"><path d="M28.61,70.41V39.48A3.14,3.14,0,0,1,32,36H43.17c7.45,0,12.61,5.06,12.61,12.53s-5.32,12.53-12.9,12.53H35.31v9.34A3.12,3.12,0,0,1,32,73.89,3.13,3.13,0,0,1,28.61,70.41ZM41.38,55.67c4.8,0,7.6-2.59,7.6-7.13s-2.78-7.06-7.58-7.06H35.31V55.67Zm17.07,12.8a3.56,3.56,0,0,1-.26-1.28,2.5,2.5,0,0,1,2.7-2.54,3.42,3.42,0,0,1,2.8,1.58c1.45,2.11,3.12,3,6.2,3s5-1.27,5-3.35c0-1.66-1-2.57-3.87-3.21l-4.46-1c-5.37-1.22-8-3.86-8-7.86,0-5.11,4.42-8.46,11.21-8.46,5.3,0,9.4,2.6,10.25,5.76a4.17,4.17,0,0,1,.13,1,2.22,2.22,0,0,1-2.49,2.31,2.87,2.87,0,0,1-2.46-1.19,6.2,6.2,0,0,0-5.58-3.09c-2.83,0-4.78,1.38-4.78,3.35,0,1.61,1.2,2.7,4,3.35l4.39,1c5.81,1.32,8.12,3.42,8.12,7.49,0,5.27-4.73,8.72-11.73,8.72C63.85,74,59.77,71.76,58.45,68.47ZM97.26,27.33A24.48,24.48,0,0,0,82.67,12.74C78,10.81,71.6,10.81,61.09,10.81H48.91c-10.51,0-16.88,0-21.58,1.93A24.48,24.48,0,0,0,12.74,27.33C10.81,32,10.81,38.4,10.81,48.91V61.09c0,10.51,0,16.88,1.93,21.58A24.48,24.48,0,0,0,27.33,97.26c4.7,1.93,11.07,1.93,21.58,1.93H61.09c10.51,0,16.88,0,21.58-1.93A24.48,24.48,0,0,0,97.26,82.67c1.93-4.7,1.93-11.07,1.93-21.58V48.91C99.19,38.4,99.19,32,97.26,27.33ZM92.19,61.09c0,9.7,0,15.55-1.42,19l-.06.15A17.52,17.52,0,0,1,80.2,90.71l-.15.06c-3.41,1.42-9.26,1.42-19,1.42H48.91c-9.69,0-15.55,0-19-1.42l-.15-.06A17.52,17.52,0,0,1,19.29,80.2l-.06-.15c-1.42-3.41-1.42-9.27-1.42-19V48.91c0-9.7,0-15.55,1.42-19l.06-.15A17.52,17.52,0,0,1,29.8,19.29l.15-.06c3.41-1.42,9.27-1.42,19-1.42H61.09c9.7,0,15.55,0,19,1.42l.15.06A17.52,17.52,0,0,1,90.71,29.8l.06.15c1.42,3.41,1.42,9.26,1.42,19Z" fill="#ff003d"/></svg>