<svg id="Layer_1" data-name="Layer 1" xmlns="http://www.w3.org/2000/svg" viewBox="0 0 110 110"><path d="M101,99.43a3.86,3.86,0,0,1-3.66-2.64,9.34,9.34,0,0,0-1.15-2.3,9.6,9.6,0,0,0-8-4.22,11,11,0,0,0-1.56.12l-.62.12a10.52,10.52,0,0,0-1.35.43c-.76.44-1.48.83-2.22,1.21a60.6,60.6,0,0,1-27.89,6.79,61.61,61.61,0,0,1-8-.53A60.74,60.74,0,0,1,5.65,74a4.08,4.08,0,0,1,5.83-5.6,38.41,38.41,0,0,0,38.71,5.43,37.78,37.78,0,0,0,4.51-2.23A178.77,178.77,0,0,1,15.94,31.42a4,4,0,0,1,5.87-5.22c4.16,3.7,8.51,7.21,13,10.5q-3.74-4.59-7.15-9.41a3.78,3.78,0,0,1,.66-5.16,3.84,3.84,0,0,1,5.21.22,173.54,173.54,0,0,0,38.11,28.8A38.4,38.4,0,0,0,67.25,17a4.08,4.08,0,0,1,5.57-5.73,54.5,54.5,0,0,1,25.24,46.1A55.94,55.94,0,0,1,97.53,65c-.15,1-.31,2-.48,2.82s-.33,1.63-.53,2.46a30.51,30.51,0,0,1,8.62,21.27c0,1-.07,1.88-.14,2.77l0,.51c0,.44-.08.86-.12,1.24a3.85,3.85,0,0,1-3.43,3.34ZM13.7,76a55.77,55.77,0,0,0,33.52,17.5,56.73,56.73,0,0,0,7.39.48,55.51,55.51,0,0,0,25.6-6.24c.74-.37,1.45-.76,2.15-1.17l.28-.14A15,15,0,0,1,85,85.63l.92-.18a15.34,15.34,0,0,1,2.34-.18,14.61,14.61,0,0,1,11.89,6.11A25.57,25.57,0,0,0,96.2,77.91a25,25,0,0,0-4.16-5l-1.12-1,.41-1.46c.32-1.18.6-2.37.81-3.53.17-.79.31-1.61.44-2.56a50.38,50.38,0,0,0,.48-7,49.49,49.49,0,0,0-19.39-39.4,43.36,43.36,0,0,1,1.62,37.59A2.63,2.63,0,0,1,73.73,57a2.73,2.73,0,0,1-2.15-.17A178.38,178.38,0,0,1,40.06,35.2Q44.73,40.8,49.84,46a2.79,2.79,0,0,1-3.4,4.36A176.72,176.72,0,0,1,25.35,35.74,173.4,173.4,0,0,0,58.18,68l.21.15c.66.49,1.32,1,2,1.46a2.67,2.67,0,0,1,0,4.34,43.3,43.3,0,0,1-24.92,7.87A43.59,43.59,0,0,1,13.7,76Zm43.74-2.33,0,0ZM70.71,53.54l0,0ZM74,52.41h0Z" fill="#ff003d"/></svg>