<svg id="Layer_1" data-name="Layer 1" xmlns="http://www.w3.org/2000/svg" viewBox="0 0 110 110"><path d="M45.39,47.81,38,60.54h7.85L39.1,69.11h-6L27.14,79.42A5.1,5.1,0,0,1,26,80.88a4.32,4.32,0,0,1-2.8,1,4.62,4.62,0,0,1-.74-.06,4.36,4.36,0,0,1-1.4-.51,4.46,4.46,0,0,1-1.15-1A4.22,4.22,0,0,1,19,76.88a5.44,5.44,0,0,1,.7-1.75l3.48-6h-4.6a5.18,5.18,0,0,1-1.83-.24,4.3,4.3,0,0,1-2.63-2.59,4.07,4.07,0,0,1-.25-1.46,4,4,0,0,1,.27-1.49,4.31,4.31,0,0,1,2.54-2.54,5.55,5.55,0,0,1,1.9-.25h9.56L40.43,39.23l-3.2-5.56A5.09,5.09,0,0,1,36.52,32a4.31,4.31,0,0,1,.93-3.55,3.87,3.87,0,0,1,1.13-.95A4.13,4.13,0,0,1,40,27a4.28,4.28,0,0,1,3.5.93,3.34,3.34,0,0,1,.61.66,5.88,5.88,0,0,1,.56.85l.17.3.56,1,.61-1,1-.07c0,.11.09.22.15.33a8.19,8.19,0,0,0,6,4.44l-2.85,4.93,5.25,9.08-5.73,7.23Z" fill="#ff003d"/><path d="M106.37,38.26a8.75,8.75,0,0,0-8.16-1l-2.69-1.89L95,31.66a9.7,9.7,0,0,0-4-6.45L81.5,18.52c-8.12-5.73-18.55-4-29.36,4.76a3.73,3.73,0,0,0,3.26,6.51,27.77,27.77,0,0,1,13.5.1l-.55,3.61a9.72,9.72,0,0,0,.6,5.17L38,77.72A8.47,8.47,0,0,0,39.79,90l3,2.09a8.51,8.51,0,0,0,12.13-2.45L80.94,48a8.9,8.9,0,0,0,4.25-.31l2.47-.82,2.53,1.78A8.78,8.78,0,0,0,93.87,56a6.29,6.29,0,0,0,8.76-1.51L107.88,47A6.29,6.29,0,0,0,106.37,38.26ZM50.64,87a3.53,3.53,0,0,1-5,1l-3-2.08A3.47,3.47,0,0,1,42,80.82l30.11-38,.34.24h0l4,2.81Zm53.15-42.83-5.25,7.44a1.27,1.27,0,0,1-1.78.31,3.72,3.72,0,0,1-1.52-3.68l.34-1.9-7.1-5-4.86,1.61a3.89,3.89,0,0,1-3.44-.51L75.28,39a4.82,4.82,0,0,1-2-4.69l1.18-7.68-1.82-.75a31.26,31.26,0,0,0-13.12-1.75c9.09-5.76,15.32-4.14,19.09-1.48l9.49,6.7A4.68,4.68,0,0,1,90,32.4l.88,5.81,6.93,4.89,1.67-1a3.74,3.74,0,0,1,4,.2A1.28,1.28,0,0,1,103.79,44.13Z" fill="#ff003d"/><path d="M86.09,52.09a13,13,0,0,1-2.71.47l-1,1.63v6.9c0,9.7,0,15.55-1.42,19l-.06.15A17.52,17.52,0,0,1,70.37,90.71l-.15.06c-2.45,1-6.16,1.31-11.63,1.39a13.11,13.11,0,0,1-8.36,5.7,13.11,13.11,0,0,1-10.08-2.13L37.2,93.65a13.4,13.4,0,0,1-1.72-1.46c-7.58,0-12.39-.18-15.36-1.42L20,90.71A17.52,17.52,0,0,1,9.46,80.2l-.06-.15C8,76.64,8,70.79,8,61.09V48.91c0-9.7,0-15.55,1.43-19l.06-.15A17.52,17.52,0,0,1,20,19.29l.15-.06c3.41-1.42,9.26-1.42,19-1.42H51.9a37.17,37.17,0,0,1,14.34-6.58c-3.86-.42-8.67-.42-15-.42H39.08c-10.51,0-16.88,0-21.58,1.93A24.48,24.48,0,0,0,2.91,27.33C1,32,1,38.4,1,48.91V61.09C1,71.6,1,78,2.91,82.67A24.48,24.48,0,0,0,17.5,97.26c4.7,1.93,11.07,1.93,21.58,1.93H51.26c10.51,0,16.88,0,21.58-1.93A24.53,24.53,0,0,0,87.43,82.67c1.93-4.7,1.93-11.07,1.93-21.58V58A13.21,13.21,0,0,1,86.09,52.09Z" fill="#ff003d"/></svg>