<svg id="Layer_1" data-name="Layer 1" xmlns="http://www.w3.org/2000/svg" viewBox="0 0 110 110"><path d="M25.49,71.26a4,4,0,0,1,.85-2.34l10-14v-.18L26.65,41.42a3.75,3.75,0,0,1-.9-2.47,3.17,3.17,0,0,1,3.39-3.11,3.34,3.34,0,0,1,3,1.87l8.67,12.63H41l8.9-12.84a3,3,0,0,1,2.75-1.66,3.06,3.06,0,0,1,3.24,2.85A3.63,3.63,0,0,1,55.09,41L44.82,54.94v.18l10,13.67a3.61,3.61,0,0,1,.86,2.34,3.1,3.1,0,0,1-3.27,3,3.27,3.27,0,0,1-2.91-1.66L40.56,60h-.21l-8.84,12.5a3.06,3.06,0,0,1-2.83,1.69A3,3,0,0,1,25.49,71.26ZM58,59.94c0-8.69,4.49-14.19,11.42-14.19a9.16,9.16,0,0,1,8.51,5.09h.15V39.16a3.23,3.23,0,1,1,6.46,0V71a3,3,0,0,1-3.19,3.24A3,3,0,0,1,78.05,71V68.84h-.13c-1.32,3.17-4.28,5.32-8.53,5.32C62.46,74.16,58,68.69,58,59.94Zm20.11,0c0-5.4-2.67-8.9-6.75-8.9s-6.74,3.45-6.74,8.9,2.57,8.9,6.74,8.9S78.08,65.42,78.08,60ZM97.26,27.33A24.48,24.48,0,0,0,82.67,12.74C78,10.81,71.6,10.81,61.09,10.81H48.91c-10.51,0-16.88,0-21.58,1.93A24.48,24.48,0,0,0,12.74,27.33C10.81,32,10.81,38.4,10.81,48.91V61.09c0,10.51,0,16.88,1.93,21.58A24.48,24.48,0,0,0,27.33,97.26c4.7,1.93,11.07,1.93,21.58,1.93H61.09c10.51,0,16.88,0,21.58-1.93A24.48,24.48,0,0,0,97.26,82.67c1.93-4.7,1.93-11.07,1.93-21.58V48.91C99.19,38.4,99.19,32,97.26,27.33ZM92.19,61.09c0,9.7,0,15.55-1.42,19l-.06.15A17.52,17.52,0,0,1,80.2,90.71l-.15.06c-3.41,1.42-9.26,1.42-19,1.42H48.91c-9.69,0-15.55,0-19-1.42l-.15-.06A17.52,17.52,0,0,1,19.29,80.2l-.06-.15c-1.42-3.41-1.42-9.27-1.42-19V48.91c0-9.7,0-15.55,1.42-19l.06-.15A17.52,17.52,0,0,1,29.8,19.29l.15-.06c3.41-1.42,9.27-1.42,19-1.42H61.09c9.7,0,15.55,0,19,1.42l.15.06A17.52,17.52,0,0,1,90.71,29.8l.06.15c1.42,3.41,1.42,9.26,1.42,19Z" fill="#ff003d"/></svg>